<?xml version="1.0" standalone="no"?>
<!DOCTYPE svg PUBLIC "-//W3C//DTD SVG 20010904//EN"
 "http://www.w3.org/TR/2001/REC-SVG-20010904/DTD/svg10.dtd">
<svg version="1.0" xmlns="http://www.w3.org/2000/svg"
 width="272.000000pt" height="272.000000pt" viewBox="0 0 272.000000 272.000000"
 preserveAspectRatio="xMidYMid meet">
<metadata>
Created by potrace 1.11, written by Peter Selinger 2001-2013
</metadata>
<g transform="translate(0.000000,272.000000) scale(0.100000,-0.100000)"
fill="#000000" stroke="none">
<path d="M1190 2700 c-116 -16 -213 -41 -315 -81 -433 -168 -750 -547 -842
-1007 -25 -124 -24 -385 1 -507 58 -279 174 -493 376 -695 202 -203 416 -318
700 -377 118 -24 382 -24 500 0 284 59 498 174 700 377 203 202 318 416 377
700 24 117 24 380 0 502 -36 183 -121 381 -225 528 -62 87 -198 227 -286 295
-152 116 -347 206 -531 245 -114 24 -352 34 -455 20z m464 -582 c9 -12 16 -30
16 -38 0 -25 -460 -1432 -476 -1458 -8 -12 -23 -22 -34 -22 -22 0 -50 36 -50
65 0 31 454 1419 474 1449 20 32 50 33 70 4z m-660 -310 c24 -34 19 -65 -16
-102 -18 -19 -143 -105 -278 -192 -135 -86 -249 -160 -253 -164 -4 -4 114 -87
263 -185 269 -176 300 -203 300 -253 0 -11 -8 -30 -19 -43 -16 -20 -22 -22
-43 -12 -52 24 -649 425 -658 443 -17 31 -11 67 15 98 22 26 587 404 634 424
28 12 39 9 55 -14z m1088 -179 c161 -104 308 -206 326 -224 38 -42 42 -81 9
-116 -22 -25 -601 -412 -645 -432 -21 -10 -27 -8 -43 12 -11 13 -19 32 -19 43
0 49 32 76 299 252 150 98 270 180 268 182 -1 2 -117 78 -257 169 -262 170
-310 209 -310 248 0 37 29 70 56 63 12 -3 155 -92 316 -197z"/>
</g>
</svg>
